<?xml version="1.0" encoding="UTF-8"?>
<!DOCTYPE svg PUBLIC "-//W3C//DTD SVG 1.1//EN" "http://www.w3.org/Graphics/SVG/1.1/DTD/svg11.dtd">
<!-- Creator: CorelDRAW 2019 (64-Bit) -->
<svg xmlns="http://www.w3.org/2000/svg" xml:space="preserve" width="7.37756in" height="7.31181in" version="1.1" style="shape-rendering:geometricPrecision; text-rendering:geometricPrecision; image-rendering:optimizeQuality; fill-rule:evenodd; clip-rule:evenodd"
viewBox="0 0 7771.99 7702.72"
 xmlns:xlink="http://www.w3.org/1999/xlink">
 <defs>
  <style type="text/css">
   <![CDATA[
    .str0 {stroke:black;stroke-width:3.16;stroke-miterlimit:2.61313}
    .fil0 {fill:none}
    .fil1 {fill:#FCB57A}
    .fil2 {fill:#FCB87F}
    .fil3 {fill:#FCBC86}
    .fil4 {fill:#FCBF8D}
    .fil5 {fill:#FDC393}
    .fil6 {fill:#FDC699}
    .fil7 {fill:#FDCA9F}
    .fil8 {fill:#FDCDA6}
    .fil9 {fill:#FDD1AD}
    .fil10 {fill:#FDD4B2}
    .fil11 {fill:#FDD8B9}
    .fil12 {fill:#FEDBBF}
    .fil13 {fill:#FEDFC6}
    .fil14 {fill:#FEE2CB}
    .fil15 {fill:#FEE6D2}
    .fil16 {fill:#FEEAD8}
    .fil17 {fill:#FEEDDF}
    .fil18 {fill:#FEF0E4}
    .fil19 {fill:#FFF4EB}
    .fil20 {fill:#FFF8F2}
    .fil21 {fill:#FFFBF8}
    .fil22 {fill:white}
    .fil23 {fill:url(#id2)}
    .fil25 {fill:url(#id3)}
    .fil24 {fill:url(#id4)}
   ]]>
  </style>
     <clipPath id="id0">
      <path d="M-0 0l7771.99 0 0 7702.72 -7771.99 0 0 -7702.72z"/>
     </clipPath>
     <clipPath id="id1">
      <path d="M-0 0l7771.99 0 0 7702.72 -7771.99 0 0 -7702.72z"/>
     </clipPath>
  <linearGradient id="id2" gradientUnits="userSpaceOnUse" x1="2138.03" y1="3025.18" x2="3135.5" y2="3025.18">
   <stop offset="0" style="stop-opacity:1; stop-color:#990000"/>
   <stop offset="1" style="stop-opacity:1; stop-color:#FF803B"/>
  </linearGradient>
  <linearGradient id="id3" gradientUnits="userSpaceOnUse" xlink:href="#id2" x1="2738.17" y1="3386.27" x2="5096.91" y2="3386.27">
  </linearGradient>
  <linearGradient id="id4" gradientUnits="userSpaceOnUse" x1="2161.84" y1="4145.83" x2="3135.5" y2="4145.83">
   <stop offset="0" style="stop-opacity:1; stop-color:#990000"/>
   <stop offset="0.490196" style="stop-opacity:1; stop-color:#CC401D"/>
   <stop offset="1" style="stop-opacity:1; stop-color:#FF803B"/>
  </linearGradient>
 </defs>
 <g id="Layer_x0020_1">
  <metadata id="CorelCorpID_0Corel-Layer"/>
  <g id="_1910318590384">
   <g>
    <g>
    </g>
    <g style="clip-path:url(#id0)">
    </g>
    <polygon class="fil0" points="-0,0 7771.99,0 7771.99,7702.72 -0,7702.72 "/>
    <g style="clip-path:url(#id1)">
     <path id="1" class="fil0 str0" d="M-0 0l7771.99 7702.72m0 -7702.72l-7771.99 7702.72"/>
    </g>
   </g>
   <ellipse class="fil1" transform="matrix(0.934999 -0.940695 -1.00826 -0.990291 3696.49 3592.39)" rx="2569.79" ry="2356.61"/>
   <g id="_2491766107760">
    <path class="fil2" d="M5900.64 5733.08c1293.19,-1294.02 1323.88,-3342.88 69.26,-4576.34 -1254.62,-1233.46 -3320.07,-1184.52 -4612.84,109.49 -1292.77,1294.02 -1323.88,3342.88 -69.26,4576.76 1255.03,1233.46 3320.07,1184.11 4612.84,-109.91z"/>
    <path class="fil3" d="M5728.93 5540.22c1258.76,-1252.54 1308.53,-3223.43 111.57,-4401.73 -1197.38,-1177.89 -3188.18,-1117.33 -4446.94,135.62 -1258.76,1252.96 -1308.53,3223.43 -111.57,4401.73 1197.38,1178.3 3188.18,1117.33 4446.94,-135.62z"/>
    <path class="fil4" d="M5557.22 5347.78c1224.75,-1211.9 1293.6,-3104.4 153.87,-4227.54 -1139.73,-1122.73 -3056.29,-1050.56 -4281.04,161.34 -1224.34,1211.9 -1293.19,3104.4 -153.46,4227.12 1139.32,1122.73 3055.87,1050.56 4280.63,-160.92z"/>
    <path class="fil5" d="M5385.52 5154.92c1190.33,-1170.84 1278.26,-2985.36 196.18,-4052.51 -1082.08,-1067.56 -2924.4,-983.79 -4114.73,187.05 -1190.74,1170.42 -1278.26,2984.95 -196.18,4052.51 1082.08,1067.15 2924.4,983.37 4114.73,-187.05z"/>
    <path class="fil6" d="M5213.81 4962.06c1156.32,-1129.78 1262.91,-2865.92 238.48,-3877.91 -1024.43,-1011.99 -2792.51,-917.01 -3948.83,212.77 -1156.32,1129.78 -1263.33,2865.92 -238.48,3877.91 1024.43,1011.99 2792.51,916.6 3948.83,-212.77z"/>
    <path class="fil7" d="M5042.11 4769.2c1121.9,-1088.72 1247.57,-2746.47 280.79,-3703.3 -967.2,-956.83 -2660.62,-849.82 -3782.93,238.48 -1122.31,1088.72 -1247.98,2746.88 -280.79,3703.3 966.78,956.83 2660.62,850.24 3782.93,-238.48z"/>
    <path class="fil8" d="M4870.4 4576.34c1087.89,-1047.66 1232.63,-2627.44 323.09,-3528.69 -909.55,-901.25 -2528.73,-783.05 -3617.03,264.61 -1087.89,1047.24 -1232.63,2627.44 -323.09,3528.69 909.55,901.25 2528.73,783.05 3617.03,-264.61z"/>
    <path class="fil9" d="M4698.28 4383.48c1053.88,-1006.18 1217.7,-2507.99 365.81,-3354.08 -851.89,-846.09 -2397.25,-715.86 -3451.13,290.32 -1053.88,1006.6 -1217.29,2507.99 -365.39,3354.08 851.89,846.09 2396.84,716.27 3450.71,-290.32z"/>
    <path class="fil10" d="M4526.57 4190.63c1019.87,-965.12 1202.36,-2388.54 408.11,-3179.47 -794.66,-790.51 -2265.36,-649.08 -3284.81,316.45 -1019.87,965.12 -1202.36,2388.54 -408.11,3179.47 794.66,790.51 2265.36,649.08 3284.81,-316.45z"/>
    <path class="fil11" d="M4354.87 3997.77c985.86,-924.06 1187.43,-2269.51 450.42,-3004.44 -737.01,-735.35 -2133.47,-582.31 -3118.91,341.75 -985.44,924.06 -1187.43,2269.51 -450.42,3004.86 737.01,735.35 2133.47,582.31 3118.91,-342.17z"/>
    <path class="fil12" d="M4183.16 3804.91c951.43,-883 1172.08,-2150.06 492.72,-2829.83 -679.36,-680.19 -2001.58,-515.53 -2953.01,367.88 -951.43,883 -1172.08,2150.06 -492.72,2829.83 679.36,680.19 2001.58,515.53 2953.01,-367.88z"/>
    <path class="fil13" d="M4011.45 3612.47c917.43,-842.36 1156.74,-2031.03 535.03,-2655.64 -622.12,-624.61 -1869.69,-448.34 -2787.11,393.6 -917.01,841.94 -1156.74,2031.03 -535.03,2655.64 622.12,624.61 1869.69,448.34 2787.11,-393.6z"/>
    <path class="fil14" d="M3839.75 3419.61c883,-800.88 1141.39,-1911.99 577.33,-2481.03 -564.47,-569.04 -1737.8,-381.57 -2620.8,419.31 -883.42,801.3 -1141.8,1911.99 -577.33,2481.03 564.06,569.45 1737.38,381.57 2620.8,-419.31z"/>
    <path class="fil15" d="M3668.04 3226.75c848.99,-759.82 1126.46,-1792.55 619.64,-2306.42 -506.82,-513.87 -1605.91,-314.38 -2454.9,445.44 -848.99,759.82 -1126.46,1792.13 -619.64,2306.01 506.82,513.87 1605.91,314.79 2454.9,-445.03z"/>
    <path class="fil16" d="M3496.34 3033.89c814.57,-718.76 1111.11,-1673.1 661.94,-2131.81 -449.17,-458.3 -1474.02,-247.61 -2289,471.16 -814.98,718.76 -1111.11,1673.1 -661.94,2131.81 449.17,458.3 1474.02,247.61 2289,-471.16z"/>
    <path class="fil17" d="M3324.21 2841.03c780.97,-677.7 1096.18,-1553.65 704.66,-1957.2 -391.94,-403.14 -1342.13,-180.42 -2123.1,497.28 -780.56,677.7 -1096.18,1553.65 -704.24,1956.79 391.52,403.14 1342.13,180.83 2122.69,-496.87z"/>
    <path class="fil18" d="M3152.51 2648.17c746.55,-636.64 1080.84,-1434.62 746.96,-1782.18 -334.29,-347.97 -1210.65,-114.06 -1957.2,522.58 -746.55,636.64 -1080.84,1434.62 -746.55,1782.59 334.29,347.56 1210.24,113.64 1956.79,-523z"/>
    <path class="fil19" d="M2980.8 2455.32c712.54,-595.58 1065.91,-1315.17 789.27,-1607.57 -276.64,-292.4 -1078.76,-46.87 -1790.89,548.71 -712.54,595.17 -1065.91,1315.17 -789.27,1607.57 276.64,292.4 1078.35,46.87 1790.89,-548.71z"/>
    <path class="fil20" d="M2809.1 2262.46c678.53,-554.1 1050.56,-1195.72 831.57,-1432.96 -219.4,-237.24 -946.87,19.91 -1624.99,574.43 -678.53,554.52 -1050.56,1196.14 -831.57,1432.96 218.99,237.24 946.87,-19.91 1624.99,-574.43z"/>
    <path class="fil21" d="M2637.39 2069.6c644.11,-513.04 1035.21,-1076.69 873.88,-1258.35 -161.75,-181.66 -814.98,87.1 -1459.09,600.14 -644.11,513.46 -1035.21,1076.69 -873.88,1258.76 161.75,181.66 814.98,-87.1 1459.09,-600.56z"/>
   </g>
   <ellipse class="fil22" transform="matrix(1.05035 -0.813013 -0.838522 -1.0184 2277.18 1648.09)" rx="1051.8" ry="224.79"/>
  </g>
  <path class="fil23" d="M2138.03 2892.88l997.47 720.42c0,0 -123.18,-572.77 -437.15,-1176.23 0,0 -486.5,233.92 -560.33,455.81z"/>
  <path class="fil24" d="M2181.17 4438.65l954.34 904.98 0 -1631.62 -997.47 -763.55c-86.27,455.39 43.13,1490.19 43.13,1490.19z"/>
  <path class="fil25" d="M4428.69 2144.67l0 -618.81c0,-81.71 -65.53,-139.36 -146.82,-129.4l-1396.88 175.44c-81.29,10.37 -146.82,85.02 -146.82,166.31l0 646.59c0,0 425.12,794.66 526.73,1496.42 101.61,702.17 -92.49,1487.29 -92.49,1487.29l1847.29 -544.98c0,0 434.24,-628.35 157.19,-1478.17 -277.05,-849.82 -748.21,-1200.7 -748.21,-1200.7zm-483.6 -131.89l-584.8 104.93c-9.54,1.66 -18.66,2.49 -27.79,2.49 -74.65,0 -141.01,-53.5 -154.29,-129.4 -15.35,-85.44 41.47,-167.14 126.5,-182.49l585.21 -104.52c85.02,-15.35 166.73,41.47 182.07,126.91 15.35,85.44 -41.47,166.73 -126.91,182.07z"/>
  <g id="_2064602960368">
  </g>
  <g id="_2064602962224">
  </g>
  <g id="_2064602961104">
  </g>
  <g id="_2064602961680">
  </g>
  <g id="_2064602960944">
  </g>
  <g id="_2064602961968">
  </g>
  <g id="_2064603028528">
  </g>
  <g id="_2064603029008">
  </g>
  <g id="_2064603028464">
  </g>
  <g id="_2064603027824">
  </g>
  <g id="_2064603028656">
  </g>
  <g id="_2064603027440">
  </g>
  <g id="_2064603026352">
  </g>
  <g id="_2064603026608">
  </g>
  <g id="_2064603027664">
  </g>
 </g>
</svg>
