<?xml version="1.0" encoding="UTF-8"?>
<!DOCTYPE svg PUBLIC "-//W3C//DTD SVG 1.1//EN" "http://www.w3.org/Graphics/SVG/1.1/DTD/svg11.dtd">
<!-- Creator: CorelDRAW 2019 (64-Bit) -->
<svg xmlns="http://www.w3.org/2000/svg" xml:space="preserve" width="5in" height="4.95526in" version="1.1" style="shape-rendering:geometricPrecision; text-rendering:geometricPrecision; image-rendering:optimizeQuality; fill-rule:evenodd; clip-rule:evenodd"
viewBox="0 0 5000 4955.26"
 xmlns:xlink="http://www.w3.org/1999/xlink">
 <defs>
  <style type="text/css">
   <![CDATA[
    .str0 {stroke:black;stroke-width:3;stroke-miterlimit:2.61313}
    .fil0 {fill:none}
    .fil1 {fill:#FCB57A}
    .fil2 {fill:#FCB87F}
    .fil3 {fill:#FCBC86}
    .fil4 {fill:#FCBF8D}
    .fil5 {fill:#FDC393}
    .fil6 {fill:#FDC699}
    .fil7 {fill:#FDCA9F}
    .fil8 {fill:#FDCDA6}
    .fil9 {fill:#FDD1AD}
    .fil10 {fill:#FDD4B2}
    .fil11 {fill:#FDD8B9}
    .fil12 {fill:#FEDBBF}
    .fil13 {fill:#FEDFC6}
    .fil14 {fill:#FEE2CB}
    .fil15 {fill:#FEE6D2}
    .fil16 {fill:#FEEAD8}
    .fil17 {fill:#FEEDDF}
    .fil18 {fill:#FEF0E4}
    .fil19 {fill:#FFF4EB}
    .fil20 {fill:#FFF8F2}
    .fil21 {fill:#FFFBF8}
    .fil22 {fill:white}
    .fil23 {fill:url(#id2)}
   ]]>
  </style>
      <clipPath id="id0">
       <path d="M-0 0l5000 0 0 4955.26 -5000 0 0 -4955.26z"/>
      </clipPath>
      <clipPath id="id1">
       <path d="M-0 0l5000 0 0 4955.26 -5000 0 0 -4955.26z"/>
      </clipPath>
  <linearGradient id="id2" gradientUnits="userSpaceOnUse" x1="1075.76" y1="2168.25" x2="3651.84" y2="2168.25">
   <stop offset="0" style="stop-opacity:1; stop-color:#990000"/>
   <stop offset="1" style="stop-opacity:1; stop-color:#FF803B"/>
  </linearGradient>
 </defs>
 <g id="Layer_x0020_1">
  <metadata id="CorelCorpID_0Corel-Layer"/>
  <g id="_2491673780352">
   <g id="_1944996686480">
    <g>
     <g>
     </g>
     <g style="clip-path:url(#id0)">
     </g>
     <polygon class="fil0" points="-0,0 5000,0 5000,4955.26 -0,4955.26 "/>
     <g style="clip-path:url(#id1)">
      <path id="1" class="fil0 str0" d="M-0 0l5000 4955.26m0 -4955.26l-5000 4955.26"/>
     </g>
    </g>
    <ellipse class="fil1" transform="matrix(0.633653 -0.637511 -0.683301 -0.671121 2378.08 2311.07)" rx="2439.37" ry="2237.01"/>
    <g>
     <path class="fil2" d="M3796.18 3688.3c831.65,-832.37 851.5,-2150.56 44.38,-2944.15 -807.12,-793.4 -2135.77,-761.83 -2967.42,70.54 -831.83,832.37 -851.67,2150.56 -44.56,2944.15 807.3,793.41 2135.77,761.83 2967.6,-70.54z"/>
     <path class="fil3" d="M3685.6 3564.19c809.82,-806.03 841.93,-2073.71 71.8,-2831.57 -770.31,-758.05 -2050.98,-719.08 -2860.8,86.95 -809.64,806.03 -841.75,2073.89 -71.62,2831.76 770.13,757.87 2050.8,718.9 2860.62,-87.13z"/>
     <path class="fil4" d="M3575.19 3440.25c787.63,-779.7 832.01,-1997.04 98.86,-2719.37 -733.15,-722.33 -1966.01,-675.96 -2753.82,103.73 -787.81,779.51 -832.19,1997.04 -99.04,2719.37 733.15,722.33 1966.19,675.78 2754.01,-103.73z"/>
     <path class="fil5" d="M3464.61 3316.13c765.8,-753.17 822.27,-1920.37 126.28,-2606.98 -696.17,-686.79 -1881.41,-632.85 -2647.21,120.33 -765.8,753.18 -822.27,1920.37 -126.1,2606.98 695.99,686.79 1881.22,632.85 2647.03,-120.33z"/>
     <path class="fil6" d="M3354.2 3192.2c743.79,-726.84 812.53,-1843.7 153.34,-2494.77 -659,-651.07 -1796.43,-589.73 -2540.23,136.93 -743.98,726.66 -812.71,1843.7 -153.52,2494.77 659.19,651.07 1796.43,589.73 2540.41,-136.92z"/>
     <path class="fil7" d="M3243.61 3068.08c721.96,-700.32 802.78,-1766.85 180.76,-2382.38 -622.2,-615.53 -1711.65,-546.61 -2433.61,153.52 -721.96,700.32 -802.79,1767.03 -180.58,2382.38 622.02,615.53 1711.65,546.8 2433.43,-153.52z"/>
     <path class="fil8" d="M3133.21 2943.97c699.96,-673.8 793.04,-1690 207.82,-2269.99 -585.04,-579.81 -1626.86,-503.68 -2326.63,170.3 -699.96,673.8 -793.05,1690.18 -208,2269.99 585.04,579.81 1626.86,503.68 2326.81,-170.3z"/>
     <path class="fil9" d="M3022.62 2820.03c677.95,-647.46 783.3,-1613.51 235.24,-2157.78 -548.06,-544.09 -1542.07,-460.56 -2220.02,186.9 -677.94,647.46 -783.3,1613.33 -235.24,2157.6 548.24,544.27 1542.07,460.74 2220.02,-186.72z"/>
     <path class="fil10" d="M2912.22 2695.92c655.94,-620.94 773.38,-1536.66 262.3,-2045.21 -511.07,-508.73 -1457.1,-417.63 -2113.04,203.31 -656.12,620.94 -773.56,1536.66 -262.48,2045.39 511.08,508.55 1457.1,417.63 2113.22,-203.49z"/>
     <path class="fil11" d="M2801.63 2571.98c634.11,-594.6 763.82,-1459.99 289.72,-1933 -474.09,-473.01 -1372.31,-374.51 -2006.42,219.91 -634.11,594.6 -763.82,1459.99 -289.72,1933 474.09,473.01 1372.49,374.51 2006.42,-219.91z"/>
     <path class="fil12" d="M2691.22 2447.86c612.1,-568.08 753.9,-1383.13 316.78,-1820.61 -436.93,-437.47 -1287.52,-331.4 -1899.62,236.69 -611.92,568.08 -753.9,1383.14 -316.78,1820.61 436.93,437.47 1287.52,331.4 1899.62,-236.69z"/>
     <path class="fil13" d="M2580.64 2323.93c590.09,-541.74 744.16,-1306.65 344.21,-1708.4 -400.13,-401.75 -1202.74,-288.46 -1792.83,253.28 -590.09,541.57 -744.15,1306.46 -344.2,1708.22 400.13,401.93 1202.74,288.46 1792.83,-253.1z"/>
     <path class="fil14" d="M2470.23 2199.81c568.09,-515.22 734.41,-1229.8 371.27,-1596.01 -362.97,-366.22 -1117.77,-245.35 -1686.03,269.88 -568.08,515.23 -734.41,1229.8 -371.26,1596.01 362.96,366.21 1117.76,245.35 1686.03,-269.88z"/>
     <path class="fil15" d="M2359.65 2075.7c546.25,-488.71 724.67,-1152.94 398.69,-1483.62 -325.98,-330.49 -1033.16,-202.23 -1579.23,286.48 -546.26,488.89 -724.67,1153.12 -398.69,1483.62 325.98,330.68 1033.16,202.41 1579.23,-286.48z"/>
     <path class="fil16" d="M2249.24 1951.76c524.24,-462.37 714.93,-1076.27 425.93,-1371.23 -289.18,-295.14 -948.37,-159.3 -1472.61,303.07 -524.25,462.37 -714.93,1076.27 -425.75,1371.23 289,294.96 948.19,159.3 1472.44,-303.07z"/>
     <path class="fil17" d="M2138.66 1827.65c502.24,-435.85 705.19,-999.6 453.17,-1258.84 -252.02,-259.41 -863.4,-116.36 -1365.64,319.67 -502.24,435.85 -705.19,999.6 -453.17,1258.84 252.02,259.42 863.4,116.36 1365.64,-319.67z"/>
     <path class="fil18" d="M2028.25 1703.71c480.23,-409.51 695.26,-922.93 480.41,-1146.63 -215.04,-223.7 -778.61,-73.24 -1259.02,336.27 -480.23,409.51 -695.26,922.93 -480.41,1146.63 215.04,223.7 778.61,73.24 1259.02,-336.27z"/>
     <path class="fil19" d="M1917.67 1579.59c458.4,-382.99 685.7,-846.08 507.65,-1034.24 -177.88,-188.16 -693.82,-30.13 -1152.04,352.86 -458.4,383.17 -685.7,846.26 -507.65,1034.42 177.88,187.98 693.82,30.13 1152.04,-353.04z"/>
     <path class="fil20" d="M1807.26 1455.66c436.39,-356.65 675.78,-769.41 534.89,-922.03 -141.07,-152.44 -609.04,12.99 -1045.43,369.64 -436.39,356.65 -675.78,769.41 -534.89,921.85 141.07,152.62 609.04,-12.99 1045.43,-369.46z"/>
     <path class="fil21" d="M1696.67 1331.54c414.38,-330.13 666.04,-692.74 562.13,-809.64 -103.91,-116.9 -524.07,56.1 -938.44,386.24 -414.56,330.14 -666.22,692.56 -562.13,809.64 103.91,116.9 524.07,-56.1 938.45,-386.24z"/>
    </g>
    <ellipse class="fil22" transform="matrix(0.711825 -0.550981 -0.56827 -0.69017 1465.03 1060.27)" rx="998.43" ry="213.39"/>
   </g>
   <path class="fil23" d="M2363.8 501.37c-250.93,0 -454.6,203.67 -454.6,454.6 0,251.11 203.67,454.6 454.6,454.6 251.11,0 454.6,-203.49 454.6,-454.6 0,-250.93 -203.49,-454.6 -454.6,-454.6zm0 1060.74c-269.52,0 -638.97,77.93 -638.97,77.93l-1.63 1.44c-73.96,11.37 -135.66,57.91 -168.13,122.49l-1.44 1.26 -356.65 646.37 0.36 0.18c-28.32,37.89 -45.82,84.43 -45.82,135.3 0,125.56 101.74,227.3 227.3,227.3 20.56,0 39.87,-3.43 58.81,-8.48l0.54 0.72 319.48 -75.76 0 150.27c0,103.55 -527.12,426.1 -527.12,426.1l0.36 0.9c-95.61,53.4 -154.96,154.42 -155.14,263.92 0,167.41 135.84,303.07 303.07,303.07l436.56 0c-36.26,-54.3 -57.73,-119.24 -57.73,-189.42 0,-160.37 113.83,-300.72 270.78,-333.74l697.6 -156.77c40.95,-9.2 81.36,16.42 90.56,57.19 9.02,40.95 -16.59,81.36 -57.37,90.56l-698.68 157.13c-88.22,18.58 -151.35,96.51 -151.35,185.63 0,104.45 84.97,189.42 189.42,189.42l1250.16 0c167.41,0 303.07,-135.66 303.07,-303.07 0,-108.06 -57.91,-208 -151.54,-262.12l0.36 -0.9c0,0 -530.73,-337.34 -530.73,-434.22l0 -143.96 319.48 75.76 0.72 -0.72c18.76,5.05 38.25,8.48 58.63,8.48 125.56,0 227.3,-101.74 227.3,-227.3 0,-50.87 -17.32,-97.41 -45.46,-135.3l0 -0.18 -356.65 -646.37 -1.44 -1.26c-32.29,-64.58 -94.17,-111.13 -168.13,-122.49l-1.63 -1.44c0,0 -369.27,-77.93 -638.97,-77.93zm-0.18 151.54c39.87,0 131.51,0 217.02,396.51l413.29 137.65c39.69,13.35 61.16,56.28 47.81,95.97 -10.46,31.75 -40.05,51.77 -71.8,51.77 -7.76,0 -16.06,-1.26 -23.99,-3.97l-454.6 -151.53c-25.62,-8.48 -44.92,-30.31 -50.33,-57.01 -20.74,-104.45 -51.59,-211.07 -77.39,-274.2 -25.61,63.14 -56.1,169.76 -77.03,274.2 -5.23,26.7 -24.54,48.53 -50.33,57.01l-454.61 151.53c-40.05,13.35 -82.62,-8.12 -95.79,-47.8 -13.35,-39.69 8.12,-82.62 47.81,-95.97l413.29 -137.65c85.33,-396.51 176.97,-396.51 216.66,-396.51z"/>
  </g>
 </g>
</svg>
