<?xml version="1.0" encoding="UTF-8"?>
<!DOCTYPE svg PUBLIC "-//W3C//DTD SVG 1.1//EN" "http://www.w3.org/Graphics/SVG/1.1/DTD/svg11.dtd">
<!-- Creator: CorelDRAW 2019 (64-Bit) -->
<svg xmlns="http://www.w3.org/2000/svg" xml:space="preserve" width="5in" height="5.11112in" version="1.1" style="shape-rendering:geometricPrecision; text-rendering:geometricPrecision; image-rendering:optimizeQuality; fill-rule:evenodd; clip-rule:evenodd"
viewBox="0 0 5163.55 5278.3"
 xmlns:xlink="http://www.w3.org/1999/xlink">
 <defs>
  <style type="text/css">
   <![CDATA[
    .str0 {stroke:black;stroke-width:3.1;stroke-miterlimit:2.61313}
    .fil0 {fill:none}
    .fil23 {fill:#990000}
    .fil1 {fill:#FCB57A}
    .fil2 {fill:#FCB87F}
    .fil3 {fill:#FCBC86}
    .fil4 {fill:#FCBF8D}
    .fil5 {fill:#FDC393}
    .fil6 {fill:#FDC699}
    .fil7 {fill:#FDCA9F}
    .fil8 {fill:#FDCDA6}
    .fil9 {fill:#FDD1AD}
    .fil10 {fill:#FDD4B2}
    .fil11 {fill:#FDD8B9}
    .fil12 {fill:#FEDBBF}
    .fil13 {fill:#FEDFC6}
    .fil14 {fill:#FEE2CB}
    .fil15 {fill:#FEE6D2}
    .fil16 {fill:#FEEAD8}
    .fil17 {fill:#FEEDDF}
    .fil18 {fill:#FEF0E4}
    .fil19 {fill:#FFF4EB}
    .fil20 {fill:#FFF8F2}
    .fil21 {fill:#FFFBF8}
    .fil22 {fill:white}
    .fil24 {fill:url(#id2)}
   ]]>
  </style>
      <clipPath id="id0">
       <path d="M-0 0l5163.55 0 0 5278.3 -5163.55 0 0 -5278.3z"/>
      </clipPath>
      <clipPath id="id1">
       <path d="M-0 0l5163.55 0 0 5278.3 -5163.55 0 0 -5278.3z"/>
      </clipPath>
  <linearGradient id="id2" gradientUnits="userSpaceOnUse" x1="970.39" y1="2604.65" x2="4059.28" y2="2604.65">
   <stop offset="0" style="stop-opacity:1; stop-color:#990000"/>
   <stop offset="0.490196" style="stop-opacity:1; stop-color:#CC401D"/>
   <stop offset="1" style="stop-opacity:1; stop-color:#FF803B"/>
  </linearGradient>
 </defs>
 <g id="Layer_x0020_1">
  <metadata id="CorelCorpID_0Corel-Layer"/>
  <g id="_2491669595392">
   <g id="_1944861012608">
    <g>
     <g>
     </g>
     <g style="clip-path:url(#id0)">
     </g>
     <polygon class="fil0" points="-0,0 5163.55,0 5163.55,5278.3 -0,5278.3 "/>
     <g style="clip-path:url(#id1)">
      <path id="1" class="fil0 str0" d="M-0 0l5163.55 5278.3m0 -5278.3l-5163.55 5278.3"/>
     </g>
    </g>
    <ellipse class="fil1" transform="matrix(0.633667 -0.657531 -0.683317 -0.692198 2455.86 2461.73)" rx="2519.16" ry="2310.18"/>
    <g>
     <path class="fil2" d="M3920.25 3928.75c858.97,-886.75 879.61,-2290.64 45.99,-3135.96 -833.62,-845.16 -2205.65,-811.61 -3064.62,75.14 -858.97,886.6 -879.47,2290.64 -45.84,3135.8 833.47,845.16 2205.64,811.62 3064.47,-74.98z"/>
     <path class="fil3" d="M3806.25 3796.54c836.21,-858.52 869.29,-2208.83 73.92,-3016.19 -795.22,-807.21 -2117.91,-765.77 -2954.27,92.74 -836.21,858.52 -869.45,2208.98 -74.07,3016.2 795.37,807.36 2118.06,765.77 2954.42,-92.74z"/>
     <path class="fil4" d="M3692.11 3664.49c813.59,-830.44 859.28,-2127.17 102.15,-2896.59 -757.12,-769.26 -2030.48,-719.93 -2844.07,110.5 -813.59,830.29 -859.28,2127.17 -102.15,2896.43 757.12,769.42 2030.48,719.93 2844.07,-110.35z"/>
     <path class="fil5" d="M3577.96 3532.28c790.97,-802.2 849.26,-2045.35 130.39,-2776.82 -719.02,-731.47 -1942.89,-674.1 -2733.86,128.11 -790.82,802.2 -849.11,2045.51 -130.24,2776.98 718.87,731.32 1942.89,673.94 2733.71,-128.26z"/>
     <path class="fil6" d="M3463.82 3400.22c768.2,-774.13 839.24,-1963.69 158.47,-2657.22 -680.62,-693.53 -1855.17,-628.25 -2623.37,145.87 -768.35,773.97 -839.24,1963.69 -158.47,2657.22 680.62,693.52 1855.16,628.1 2623.37,-145.87z"/>
     <path class="fil7" d="M3349.82 3268.01c745.44,-745.89 829.07,-1881.88 186.55,-2537.45 -642.52,-655.58 -1767.73,-582.41 -2513.17,163.48 -745.59,745.89 -829.07,1882.03 -186.7,2537.6 642.52,655.58 1767.73,582.27 2513.32,-163.63z"/>
     <path class="fil8" d="M3235.68 3135.95c722.82,-717.66 818.9,-1800.21 214.63,-2417.84 -604.12,-617.63 -1680,-536.57 -2402.82,181.24 -722.82,717.66 -819.05,1800.22 -214.78,2417.84 604.27,617.63 1680.15,536.57 2402.97,-181.24z"/>
     <path class="fil9" d="M3121.53 3003.9c700.2,-689.58 808.88,-1718.56 242.86,-2298.24 -566.02,-579.68 -1592.41,-490.73 -2292.62,198.84 -700.2,689.58 -808.88,1718.56 -242.86,2298.24 566.02,579.68 1592.41,490.73 2292.62,-198.84z"/>
     <path class="fil10" d="M3007.39 2871.69c677.58,-661.34 798.86,-1636.74 271.09,-2178.47 -527.92,-541.89 -1504.99,-444.89 -2182.42,216.6 -677.43,661.35 -798.86,1636.74 -270.94,2178.62 527.77,541.73 1504.83,444.74 2182.27,-216.76z"/>
     <path class="fil11" d="M2893.24 2739.64c654.82,-633.27 788.85,-1555.08 299.18,-2059.02 -489.52,-503.79 -1417.25,-398.9 -2072.07,234.36 -654.82,633.26 -788.69,1555.08 -299.18,2059.02 489.67,503.79 1417.4,398.9 2072.07,-234.36z"/>
     <path class="fil12" d="M2779.25 2607.43c632.05,-605.03 778.53,-1473.26 327.26,-1939.25 -451.42,-465.84 -1329.67,-353.06 -1961.87,252.12 -632.05,605.03 -778.53,1473.26 -327.26,1939.25 451.42,465.84 1329.67,353.06 1961.87,-252.12z"/>
     <path class="fil13" d="M2665.11 2475.37c609.43,-576.95 768.5,-1391.6 355.33,-1819.64 -413.01,-427.89 -1242.09,-307.22 -1851.52,269.73 -609.43,576.95 -768.51,1391.6 -355.34,1819.64 413.17,428.05 1242.09,307.22 1851.52,-269.73z"/>
     <path class="fil14" d="M2550.96 2343.32c586.82,-548.87 758.49,-1309.94 383.57,-1700.04 -374.92,-389.95 -1154.5,-261.38 -1741.17,287.49 -586.82,548.71 -758.49,1309.94 -383.57,1699.88 374.92,390.1 1154.5,261.38 1741.17,-287.33z"/>
     <path class="fil15" d="M2436.81 2211.11c564.2,-520.63 748.47,-1228.12 411.8,-1580.27 -336.82,-352.15 -1066.92,-215.54 -1630.97,305.09 -564.05,520.64 -748.47,1228.27 -411.8,1580.27 336.82,352.15 1066.92,215.54 1630.97,-305.1z"/>
     <path class="fil16" d="M2322.82 2079.05c541.28,-492.55 738.3,-1146.46 439.73,-1460.66 -298.42,-314.2 -979.34,-169.7 -1520.62,322.86 -541.43,492.4 -738.3,1146.46 -439.89,1460.66 298.57,314.05 979.34,169.55 1520.77,-322.86z"/>
     <path class="fil17" d="M2208.68 1946.84c518.66,-464.32 728.13,-1064.65 467.96,-1340.9 -260.32,-276.25 -891.76,-123.86 -1410.42,340.46 -518.66,464.48 -728.28,1064.8 -467.96,1341.06 260.32,276.25 891.76,123.71 1410.42,-340.62z"/>
     <path class="fil18" d="M2094.53 1814.78c496.05,-436.24 718.11,-982.98 496.05,-1221.29 -221.91,-238.31 -804.03,-78.02 -1300.07,358.22 -496.05,436.24 -718.11,982.99 -496.05,1221.29 221.92,238.31 804.03,77.87 1300.07,-358.22z"/>
     <path class="fil19" d="M1980.39 1682.58c473.43,-408.01 708.09,-901.17 524.28,-1101.53 -183.81,-200.36 -716.44,-32.18 -1189.87,375.83 -473.28,408.16 -707.94,901.32 -524.13,1101.69 183.66,200.36 716.44,32.03 1189.72,-375.98z"/>
     <path class="fil20" d="M1866.39 1550.52c450.51,-379.93 697.92,-819.51 552.36,-981.92 -145.57,-162.57 -629.01,13.66 -1079.67,393.59 -450.66,379.93 -697.92,819.51 -552.36,981.92 145.57,162.57 629.01,-13.66 1079.67,-393.59z"/>
     <path class="fil21" d="M1752.25 1418.46c427.89,-351.69 687.91,-737.84 580.44,-862.31 -107.32,-124.62 -541.28,59.5 -969.32,411.19 -427.89,351.85 -687.75,737.85 -580.44,862.31 107.32,124.62 541.28,-59.5 969.32,-411.2z"/>
    </g>
    <ellipse class="fil22" transform="matrix(0.711843 -0.568282 -0.568282 -0.711843 1512.92 1129.47)" rx="1031.08" ry="220.37"/>
   </g>
   <path class="fil23" d="M2449.87 3224.45c0,0 0,0 0,0 -56.92,0 -103.06,46.29 -103.06,103.21 0,56.92 46.14,103.06 103.06,103.06 57.07,0 103.22,-46.14 103.22,-103.06 0,0 0,0 0,0 -0.15,-56.92 -46.3,-103.06 -103.22,-103.21l0 0zm103.22 247.11c0,0 0,0 0,0 -22.62,0 -40.98,-18.21 -40.98,-40.83 0,-22.61 18.37,-40.83 40.98,-40.83 22.46,0 40.83,18.21 40.83,40.83 -12.45,28.69 -40.68,47.36 -71.95,47.36 -43.41,0 -78.47,-35.21 -78.47,-78.47 0,-10.62 2.13,-21.25 6.38,-31.12l103.22 103.06z"/>
   <path class="fil23" d="M2666.47 2510.13c2.88,0.91 5.92,1.52 8.95,1.52 15.48,0 28.08,-12.6 28.08,-28.08l0 -170c0,-15.48 -12.6,-27.93 -28.08,-27.93 -3.03,0 -6.07,0.46 -8.95,1.52l-90.62 30.66 0 -34.91c0,-15.48 -12.45,-27.93 -27.93,-27.93l-225.25 0c-40.22,0 -72.71,32.48 -72.71,72.7l0 139.04c0,40.23 32.49,72.86 72.71,72.86l225.25 0c15.48,0 27.93,-12.6 27.93,-28.08l0 -32.18 90.62 30.81zm-89.86 -133.27l70.89 -24.13 0 91.68 -70.89 -23.98 0 -43.56zm-56.77 106.71l-197.17 0c-9.26,0 -16.7,-7.59 -16.7,-16.85l0 -139.04c0,-9.26 7.44,-16.69 16.7,-16.69l197.17 0 0 172.58z"/>
   <path class="fil23" d="M1748.45 1541.72c0,0 0.15,0 0.15,0 6.38,0 12.6,-2.28 17.6,-6.22 3.04,-2.58 77.72,-60.71 218.28,-23.83 2.43,0.76 4.85,1.06 7.29,1.06 15.48,0 28.08,-12.6 28.08,-28.08 0,-12.75 -8.8,-23.98 -21.25,-27.17 -169.85,-44.63 -264.11,31.42 -268.06,34.76 -6.38,5.31 -10.02,13.21 -10.02,21.4 0,15.48 12.45,28.08 27.93,28.08 0,0 0,0 0,0l0 0z"/>
   <path class="fil23" d="M1748.45 1669.22c0,0 0.15,0 0.15,0 6.38,0 12.6,-2.28 17.6,-6.22 3.04,-2.58 77.72,-60.71 218.28,-23.83 2.43,0.61 4.85,1.06 7.29,1.06 15.48,0 28.08,-12.6 28.08,-28.08 0,-12.75 -8.8,-23.98 -21.25,-27.17 -169.85,-44.63 -264.11,31.42 -268.06,34.76 -6.38,5.31 -10.02,13.21 -10.02,21.4 0,15.48 12.45,28.08 27.93,28.08 0,0 0,0 0,0l0 0z"/>
   <path class="fil23" d="M1748.45 1802.64c0,0 0.15,0 0.15,0 6.38,0 12.6,-2.28 17.6,-6.22 3.04,-2.58 77.72,-60.71 218.28,-23.83 2.43,0.61 4.85,1.06 7.29,1.06 15.48,0 28.08,-12.6 28.08,-28.08 0,-12.9 -8.8,-23.98 -21.25,-27.17 -169.85,-44.63 -264.11,31.42 -268.06,34.76 -6.38,5.31 -10.02,13.21 -10.02,21.4 0,15.48 12.45,28.08 27.93,28.08 0,0 0,0 0,0l0 0z"/>
   <path class="fil23" d="M1247.7 1511.66c140.1,-36.73 214.78,21.1 218.27,23.83 5.01,4.1 11.23,6.38 17.76,6.38 15.48,0 28.08,-12.6 28.08,-28.08 0,-8.35 -3.79,-16.24 -10.32,-21.56 -3.94,-3.34 -98.21,-79.38 -268.06,-34.76 -12.45,3.19 -21.25,14.42 -21.25,27.17 0,15.48 12.6,28.08 28.08,28.08 2.43,0 5.01,-0.3 7.44,-1.06l0 0z"/>
   <path class="fil23" d="M1247.7 1639.17c140.1,-36.73 214.78,20.95 218.27,23.83 5.01,4.1 11.23,6.38 17.76,6.38 15.48,0 27.93,-12.6 27.93,-28.08 0,-8.35 -3.64,-16.24 -10.17,-21.56 -3.94,-3.34 -98.21,-79.38 -268.06,-34.76 -12.45,3.19 -21.25,14.42 -21.25,27.17 0,15.48 12.6,28.08 28.08,28.08 2.43,0 5.01,-0.46 7.44,-1.06z"/>
   <path class="fil23" d="M1247.7 1772.59c140.1,-36.88 214.78,20.95 218.27,23.83 5.01,4.1 11.23,6.38 17.76,6.38 15.48,0 27.93,-12.6 27.93,-28.08 0,-8.35 -3.64,-16.24 -10.17,-21.55 -3.94,-3.34 -98.21,-79.38 -268.06,-34.76 -12.45,3.19 -21.25,14.27 -21.25,27.17 0,15.48 12.6,28.08 28.08,28.08 2.43,0 5.01,-0.46 7.44,-1.06z"/>
   <path class="fil24" d="M3970.95 1509.54l-42.5 0c-10.17,-98.97 -93.5,-174.25 -192.93,-174.4l-1469.92 0 0 -122.65c-0.15,-40.37 -30.05,-74.53 -70.13,-79.69 -8.35,-1.06 -28.99,-1.82 -48.27,-2.12 -1.82,-26.11 -21.4,-47.51 -47.21,-51.76 -100.18,-17 -345.77,-40.37 -463.56,107.16 -4.4,5.62 -11.23,8.96 -18.52,8.96 -7.14,0 -13.97,-3.34 -18.37,-9.11 -117.79,-147.38 -363.38,-124.01 -463.56,-107.01 -25.81,4.25 -45.39,25.65 -47.36,51.76 -19.58,0.3 -40.22,1.06 -48.12,2.12 -40.07,5.16 -70.12,39.32 -70.12,79.69l0 742.71c0,0.3 0,0.76 0,1.06l0 1162.7c0,0.15 0,0.15 0,0.3 0,0 0,0.15 0,0.15l0 253.03c0.15,107.16 86.97,193.98 193.98,194.14l1052.81 0 -62.99 460.53 -149.36 0c-17.15,0 -31.12,13.96 -31.12,31.12 0,17.15 13.97,31.12 31.12,31.12l901.93 0c17.3,0 31.12,-13.96 31.12,-31.12 0,-17.15 -13.81,-31.12 -31.12,-31.12l-149.36 0 -62.99 -460.53 1041.12 0c107.01,-0.15 193.84,-86.98 193.99,-194.14l0 -252.88c0,-0.15 0,-0.3 0,-0.3 0,-0.15 0,-0.15 0,-0.3l0 -1170.44 41.44 0c48.72,0 88.34,-39.62 88.34,-88.49l0 -261.99c0,-48.88 -39.62,-88.5 -88.34,-88.5l0 0zm-1665.43 2606.06l62.99 -460.68 263.05 0 62.99 460.68 -389.03 0zm1430 -2718.08c64.97,0 120.37,47.66 130.08,112.02l-272.31 0c-48.87,0 -88.49,39.62 -88.49,88.5l0 43.26 -1239.2 0 0 -243.78 1469.92 0zm-2197.6 -64.51c244.23,-239.83 482.23,-210.84 552.66,-198.85 0.46,0 0.91,0.46 0.91,0.91 0,0 0,0 0,0l0 727.07c-0.3,0.15 -0.46,0.3 -0.76,0.3 -0.15,0 -0.15,0 -0.15,0 -244.53,-21.86 -379.93,47.66 -444.28,98.05l0 -714.62c13.36,-5.16 25.05,-13.82 34,-24.89l-142.38 112.02zm-393.43 -197.93c0,0 0,0 0,0 0,-0.46 0.3,-0.91 0.91,-0.91 70.43,-11.99 308.43,-40.98 410.28,86.82 8.96,11.23 20.8,19.89 34.31,24.89l0 715.38c-56.01,-43.87 -165.75,-102.15 -354.58,-102.15 -28.08,0 -57.98,1.21 -89.71,4.1 -0.15,-0.15 -0.3,-0.46 -0.3,-0.76 0,0 0,0 0,0l-0.91 -727.37zm-118.09 77.41c0,-12.29 9.11,-22.61 21.25,-24.13 6.22,-0.76 23.53,-1.37 40.83,-1.67l0 675.46c0,31.57 25.65,57.08 57.07,57.08 1.82,0 3.49,-0.15 5.16,-0.3 241.35,-21.4 363.84,50.4 415.3,95.17 14.42,12.45 32.94,19.28 51.91,19.28 19.13,0 37.65,-6.83 52.06,-19.28 51.46,-44.78 173.95,-116.57 415.3,-95.17 1.67,0.15 3.34,0.3 5.16,0.3 31.42,0 57.07,-25.5 57.07,-57.08l0 -675.61c5.16,0 9.26,0 10.17,0 12.14,1.67 21.25,11.99 21.25,24.13l0 742.71c0,13.51 -10.93,24.28 -24.28,24.28 -0.46,0 -1.06,0 -1.52,0 -272.77,-17.76 -427.59,51.15 -509.71,112.02 -16.24,11.84 -35.82,18.37 -56.01,18.37 -20.19,0 -39.92,-6.53 -56.16,-18.37 -73.01,-54.34 -204,-114.9 -424.55,-114.9 -27.02,0 -55.4,1.06 -85.15,2.88 -4.86,-4.55 -7.74,-10.93 -7.74,-17.61 0,0 0,-0.15 0,-0.15l12.6 -747.41zm993.15 1975.68c27.77,8.35 56.77,12.6 85.91,12.6 165.15,0 299.18,-134.03 299.18,-299.18 0,-76.81 -29.75,-150.88 -82.73,-206.43l104.13 0 0 392.98 -514.87 0 0 -65.27c-63.15,26.72 -104.13,88.65 -104.13,157.1 0,0.76 0,1.67 0,2.43l0 66.33 -774.43 0 0 -825.73 986.93 765.17zm302.36 -549.02c-133.88,-0.3 -242.41,-108.98 -242.41,-242.86 0,-133.88 108.53,-242.56 242.41,-242.86l259.86 0c0.15,0 0.3,0 0.3,0 134.18,0 242.86,108.83 242.86,242.86 0,134.03 -108.68,242.86 -242.86,242.86 0,0 -0.15,0 -0.3,0l-259.86 0zm-708.4 105.49c40.07,17.91 66.03,57.83 66.03,101.85 0,0.46 0,0.91 0,1.22l0 65.27 -339.55 0 0 108.83c27.93,-15.79 47.05,-43.56 51.91,-75.14 28.38,31.12 68.61,48.87 110.8,48.87 82.73,0 149.82,-67.09 149.82,-149.97 0,-37.34 -13.97,-73.31 -39.01,-100.94l0 0zm2122.01 759.7l-2571.15 0c-72.7,-0.15 -131.75,-59.05 -131.75,-131.9l0 -222.07 2406 0c17.15,0 31.12,-13.97 31.12,-31.12l0 -96.54c-63.15,26.72 -104.13,88.64 -104.13,157.1 0,0.76 0,1.67 0,2.43l0 66.33 -883.56 0 0 -392.98 99.73 0c154.52,-0.15 283.54,-118.24 297.51,-272.16l987.99 0 0 665.14 -303.58 0c-17.15,0 -31.12,13.96 -31.12,31.12 0,17.15 13.96,31.12 31.12,31.12l303.58 0 0 222.22c-13.51,4.4 -27.62,6.68 -41.74,6.68 -33.55,0 -65.73,-12.6 -90.01,-35.37l0 0zm-563.59 -759.86c40.22,18.06 66.03,57.98 66.03,101.85 0,0.46 0,0.91 0,1.37l0 65.27 -339.55 0 0 -66.33c27.93,-15.78 47.05,-43.41 51.91,-75.14 6.83,56.01 54.34,98.21 110.8,98.21 61.63,0 111.57,-50.09 111.57,-111.72 0,-4.4 -0.15,-8.96 -0.76,-13.36l0 -0.15zm-221.61 -705.67c40.22,17.91 66.02,57.83 66.02,101.85 0,0.46 0,0.91 0,1.37l0 76.8 -339.55 0 0 -77.87c27.93,-15.78 47.21,-43.56 52.06,-75.14 13.51,111.87 108.68,196.11 221.46,196.11 123.25,0 223.28,-99.88 223.28,-223.13 0,-8.95 -0.61,-18.06 -1.67,-27.02l-221.61 27.02zm473.73 382.05l45.69 0 0 -76.81c-63.15,26.57 -104.13,88.49 -104.13,156.95 0,0.76 0,1.67 0,2.43l0 78.02 -486.48 -0.15c45.39,-53.88 70.28,-122.04 70.28,-192.47 0,-165.3 -134.03,-299.33 -299.33,-299.33 -22.92,0 -45.84,2.73 -68.31,7.9l-259.86 0c-153.46,0.15 -282.17,116.72 -297.36,269.58l-991.94 0 0 -333.63c6.07,1.37 12.29,2.13 18.37,2.13 1.67,0 3.34,0 4.86,-0.15 255.61,-16.7 398.14,45.84 472.67,101.09 25.8,19.28 57.22,29.75 89.4,29.75 32.33,0 63.75,-10.47 89.55,-29.75 74.53,-55.4 216.91,-117.79 472.67,-101.09 1.67,0.15 3.34,0.15 5.16,0.15 44.33,0 80.3,-35.97 80.3,-80.3l0 -251.67 1190.93 0 -56.47 70.28c-4.4,5.46 -6.83,12.29 -6.83,19.43 0,17.15 13.96,31.12 31.12,31.12 0,0 0,0 0,0l92.59 0 0 35.67c0,48.87 39.62,88.49 88.5,88.49l261.83 0 -443.22 472.37zm222.83 -1067.68c0,14.42 -11.84,26.11 -26.26,26.11l-15.18 0c-14.57,0 -26.26,-11.69 -26.26,-26.11l0 440.04c0,-17.15 -13.97,-31.12 -31.12,-31.12l-58.74 0 70.88 -88.19c4.4,-5.46 6.83,-12.29 6.83,-19.43 0,0 0,0 0,0l0 -56.47c0,-14.57 11.69,-26.26 26.26,-26.26l377.65 0c14.42,0 26.11,11.69 26.11,26.26l-350.17 -244.84z"/>
  </g>
 </g>
</svg>
