<?xml version="1.0" encoding="UTF-8"?>
<!DOCTYPE svg PUBLIC "-//W3C//DTD SVG 1.1//EN" "http://www.w3.org/Graphics/SVG/1.1/DTD/svg11.dtd">
<!-- Creator: CorelDRAW 2019 (64-Bit) -->
<svg xmlns="http://www.w3.org/2000/svg" xml:space="preserve" width="5in" height="5.11101in" version="1.1" style="shape-rendering:geometricPrecision; text-rendering:geometricPrecision; image-rendering:optimizeQuality; fill-rule:evenodd; clip-rule:evenodd"
viewBox="0 0 5061.37 5173.74"
 xmlns:xlink="http://www.w3.org/1999/xlink">
 <defs>
  <style type="text/css">
   <![CDATA[
    .str0 {stroke:black;stroke-width:3.04;stroke-miterlimit:2.61313}
    .fil0 {fill:none}
    .fil1 {fill:#FCB57A}
    .fil2 {fill:#FCB87F}
    .fil3 {fill:#FCBC86}
    .fil4 {fill:#FCBF8D}
    .fil5 {fill:#FDC393}
    .fil6 {fill:#FDC699}
    .fil7 {fill:#FDCA9F}
    .fil8 {fill:#FDCDA6}
    .fil9 {fill:#FDD1AD}
    .fil10 {fill:#FDD4B2}
    .fil11 {fill:#FDD8B9}
    .fil12 {fill:#FEDBBF}
    .fil13 {fill:#FEDFC6}
    .fil14 {fill:#FEE2CB}
    .fil15 {fill:#FEE6D2}
    .fil16 {fill:#FEEAD8}
    .fil17 {fill:#FEEDDF}
    .fil18 {fill:#FEF0E4}
    .fil19 {fill:#FFF4EB}
    .fil20 {fill:#FFF8F2}
    .fil21 {fill:#FFFBF8}
    .fil22 {fill:white}
    .fil25 {fill:url(#id2)}
    .fil26 {fill:url(#id3)}
    .fil24 {fill:url(#id4)}
    .fil27 {fill:url(#id5)}
    .fil23 {fill:url(#id6)}
    .fil28 {fill:url(#id7)}
   ]]>
  </style>
      <clipPath id="id0">
       <path d="M-0 0l5061.37 0 0 5173.74 -5061.37 0 0 -5173.74z"/>
      </clipPath>
      <clipPath id="id1">
       <path d="M-0 0l5061.37 0 0 5173.74 -5061.37 0 0 -5173.74z"/>
      </clipPath>
  <linearGradient id="id2" gradientUnits="userSpaceOnUse" x1="2758.01" y1="1592.97" x2="3183.52" y2="1592.97">
   <stop offset="0" style="stop-opacity:1; stop-color:#990000"/>
   <stop offset="0.490196" style="stop-opacity:1; stop-color:#CC401D"/>
   <stop offset="1" style="stop-opacity:1; stop-color:#FF803B"/>
  </linearGradient>
  <linearGradient id="id3" gradientUnits="userSpaceOnUse" xlink:href="#id2" x1="2174.11" y1="972.88" x2="2599.45" y2="972.88">
  </linearGradient>
  <linearGradient id="id4" gradientUnits="userSpaceOnUse" xlink:href="#id2" x1="1590.04" y1="1592.97" x2="2015.55" y2="1592.97">
  </linearGradient>
  <linearGradient id="id5" gradientUnits="userSpaceOnUse" x1="2355.27" y1="3161.82" x2="2499.07" y2="3161.82">
   <stop offset="0" style="stop-opacity:1; stop-color:#990000"/>
   <stop offset="1" style="stop-opacity:1; stop-color:#FF803B"/>
  </linearGradient>
  <linearGradient id="id6" gradientUnits="userSpaceOnUse" xlink:href="#id5" x1="580.39" y1="2562.75" x2="4193.27" y2="2562.75">
  </linearGradient>
  <linearGradient id="id7" gradientUnits="userSpaceOnUse" xlink:href="#id5" x1="2427.96" y1="2721.62" x2="2597.39" y2="2721.62">
  </linearGradient>
 </defs>
 <g id="Layer_x0020_1">
  <metadata id="CorelCorpID_0Corel-Layer"/>
  <g id="_2491511621424">
   <g id="_1944861008272">
    <g>
     <g>
     </g>
     <g style="clip-path:url(#id0)">
     </g>
     <polygon class="fil0" points="-0,0 5061.37,0 5061.37,5173.74 -0,5173.74 "/>
     <g style="clip-path:url(#id1)">
      <path id="1" class="fil0 str0" d="M-0 0l5061.37 5173.74m0 -5173.74l-5061.37 5173.74"/>
     </g>
    </g>
    <ellipse class="fil1" transform="matrix(0.633672 -0.657534 -0.683321 -0.692199 2407.29 2413)" rx="2469.31" ry="2264.47"/>
    <g>
     <path class="fil2" d="M3842.73 3850.84c841.9,-869.13 862.06,-2245.29 44.98,-3073.74 -817.08,-828.45 -2162.04,-795.54 -3003.94,73.59 -841.9,869.13 -862.06,2245.29 -44.98,3073.74 817.08,828.63 2162.05,795.71 3003.94,-73.59z"/>
     <path class="fil3" d="M3730.89 3721.41c819.66,-841.55 852.24,-2165.14 72.56,-2956.54 -779.51,-791.23 -2076.05,-750.55 -2895.88,91 -819.66,841.55 -852.24,2165.14 -72.56,2956.54 779.68,791.23 2076.22,750.56 2895.88,-91z"/>
     <path class="fil4" d="M3619.03 3591.98c797.43,-813.98 842.41,-2085.18 100.13,-2839.35 -742.11,-754 -1990.22,-705.58 -2787.65,108.4 -797.6,813.81 -842.42,2085.01 -100.31,2839.18 742.28,754.18 1990.39,705.58 2787.82,-108.23z"/>
     <path class="fil5" d="M3507.18 3462.37c775.2,-786.23 832.42,-2005.04 127.71,-2721.99 -704.71,-716.95 -1904.4,-660.59 -2679.6,125.64 -775.2,786.4 -832.42,2005.04 -127.71,2721.99 704.71,716.95 1904.39,660.76 2679.59,-125.64z"/>
     <path class="fil6" d="M3395.33 3332.95c752.97,-758.83 822.59,-1924.9 155.28,-2604.62 -667.14,-679.89 -1818.56,-615.78 -2571.53,142.87 -752.97,758.82 -822.59,1924.9 -155.28,2604.62 667.14,679.89 1818.56,615.78 2571.53,-142.87z"/>
     <path class="fil7" d="M3283.48 3203.34c730.73,-731.08 812.77,-1844.76 182.86,-2487.25 -629.74,-642.67 -1732.57,-570.8 -2463.47,160.28 -730.73,731.08 -812.6,1844.76 -182.86,2487.43 629.74,642.5 1732.74,570.8 2463.47,-160.45z"/>
     <path class="fil8" d="M3171.63 3073.91c708.5,-703.5 802.77,-1764.62 210.43,-2370.06 -592.17,-605.44 -1646.74,-525.82 -2355.24,177.69 -708.68,703.51 -802.77,1764.62 -210.6,2370.06 592.34,605.44 1646.91,525.82 2355.42,-177.69z"/>
     <path class="fil9" d="M3059.78 2944.31c686.27,-675.93 792.95,-1684.48 238.01,-2252.7 -554.77,-568.22 -1560.91,-480.84 -2247.18,195.09 -686.27,675.93 -792.95,1684.48 -238.18,2252.69 554.95,568.22 1561.08,480.84 2247.35,-195.09z"/>
     <path class="fil10" d="M2947.93 2814.88c664.04,-648.35 782.95,-1604.34 265.58,-2135.5 -517.37,-530.99 -1475.08,-435.86 -2139.12,212.33 -664.04,648.35 -782.95,1604.51 -265.58,2135.5 517.37,531.16 1475.08,436.03 2139.12,-212.33z"/>
     <path class="fil11" d="M2836.08 2685.28c641.81,-620.61 773.13,-1524.2 293.16,-2018.14 -479.81,-493.76 -1389.26,-391.04 -2031.07,229.73 -641.81,620.78 -773.13,1524.37 -293.16,2018.14 479.81,493.93 1389.26,391.05 2031.07,-229.73z"/>
     <path class="fil12" d="M2724.23 2555.85c619.58,-593.21 763.31,-1444.24 320.73,-1900.94 -442.4,-456.54 -1303.26,-346.07 -1922.83,247.14 -619.75,593.21 -763.31,1444.24 -320.9,1900.94 442.4,456.54 1303.43,346.07 1923,-247.14z"/>
     <path class="fil13" d="M2612.38 2426.42c597.34,-565.63 753.31,-1364.1 348.31,-1783.58 -404.83,-419.66 -1217.43,-301.26 -1814.77,264.38 -597.34,565.46 -753.31,1364.1 -348.48,1783.58 405.01,419.48 1217.6,301.08 1814.95,-264.37z"/>
     <path class="fil14" d="M2500.53 2296.82c575.11,-537.88 743.49,-1283.96 376.05,-1666.21 -367.61,-382.43 -1131.78,-256.28 -1706.89,281.78 -575.11,537.88 -743.49,1283.96 -375.88,1666.21 367.44,382.26 1131.61,256.28 1706.72,-281.78z"/>
     <path class="fil15" d="M2388.68 2167.39c552.88,-510.31 733.66,-1203.81 403.63,-1549.02 -330.04,-345.2 -1045.95,-211.29 -1598.83,299.02 -552.88,510.48 -733.49,1203.99 -403.46,1549.02 330.04,345.21 1045.78,211.29 1598.66,-299.02z"/>
     <path class="fil16" d="M2276.83 2037.79c530.64,-482.74 723.67,-1123.68 431.2,-1431.66 -292.64,-307.98 -959.95,-166.31 -1490.77,316.42 -530.65,482.74 -723.67,1123.68 -431.03,1431.66 292.64,307.98 959.95,166.31 1490.59,-316.42z"/>
     <path class="fil17" d="M2164.97 1908.36c508.41,-455.16 713.85,-1043.71 458.78,-1314.46 -255.24,-270.75 -874.12,-121.33 -1382.54,333.83 -508.41,455.16 -713.85,1043.54 -458.78,1314.46 255.07,270.75 874.13,121.33 1382.54,-333.83z"/>
     <path class="fil18" d="M2053.12 1778.75c486.18,-427.41 703.85,-963.4 486.35,-1197.09 -217.67,-233.52 -788.3,-76.35 -1274.47,351.24 -486.18,427.41 -703.85,963.4 -486.35,1197.09 217.67,233.52 788.3,76.35 1274.48,-351.24z"/>
     <path class="fil19" d="M1941.27 1649.33c463.95,-400.01 694.03,-883.43 513.93,-1079.9 -180.27,-196.3 -702.47,-31.37 -1166.42,368.47 -463.95,400.01 -694.03,883.43 -513.75,1079.9 180.1,196.47 702.3,31.54 1166.24,-368.47z"/>
     <path class="fil20" d="M1829.42 1519.89c441.71,-372.43 684.2,-803.29 541.5,-962.53 -142.7,-159.42 -616.47,13.44 -1058.36,385.7 -441.71,372.43 -684.03,803.29 -541.33,962.53 142.7,159.25 616.47,-13.44 1058.19,-385.7z"/>
     <path class="fil21" d="M1717.57 1390.3c419.48,-344.69 674.21,-723.15 569.08,-845.17 -105.3,-122.19 -530.64,58.42 -950.13,403.11 -419.48,344.69 -674.38,723.15 -569.08,845.34 105.3,122.02 530.64,-58.6 950.13,-403.28z"/>
    </g>
    <ellipse class="fil22" transform="matrix(0.711845 -0.568287 -0.568287 -0.711845 1483 1107.09)" rx="1010.68" ry="216.01"/>
   </g>
   <path class="fil23" d="M4186.73 2669.25c-11.72,-20.17 -32.57,-33.61 -55.84,-35.68 -15.17,-1.38 -333.48,-28.95 -701.95,79.79 186.13,-472.22 147.7,-922.9 145.63,-944.95 -2.24,-23.27 -15.51,-44.12 -35.85,-55.84 -20.16,-11.72 -44.81,-12.75 -66.18,-2.93 -16.71,7.76 -374.84,175.27 -680.41,521.17 -86.86,-487.04 -333.83,-841.38 -346.58,-859.3 -13.44,-19.13 -35.33,-30.5 -58.77,-30.5 -23.44,0 -45.33,11.37 -58.94,30.5 -12.58,17.92 -259.55,372.26 -346.58,859.3 -305.56,-345.89 -663.52,-513.41 -680.24,-521.17 -21.37,-9.82 -46.02,-8.79 -66.35,2.93 -20.17,11.72 -33.61,32.58 -35.68,55.84 -2.07,22.06 -40.5,472.74 145.63,944.95 -368.47,-108.58 -686.78,-81.17 -701.95,-79.79 -23.27,2.07 -44.12,15.51 -55.84,35.68 -11.72,20.34 -12.92,44.98 -3.1,66.35 9.82,21.2 245.42,523.58 739.35,808.81 365.37,210.95 762.96,240.07 954.61,240.07 55.67,0 93.93,-2.42 109.09,-3.62 15.16,1.2 53.43,3.62 108.92,3.62 191.82,0 589.41,-29.12 954.61,-240.07 494.11,-285.23 729.7,-787.61 739.52,-808.81 9.65,-21.37 8.62,-46.01 -3.1,-66.35zm-2791.44 750.38c-327.28,-189.06 -535.64,-490.83 -626.98,-645.6 141.15,1.04 396.39,19.48 658.52,119.09 10.68,20.51 21.89,40.85 33.61,61.18 186.65,323.49 457.57,547.01 652.83,677.83 -194.92,-16.72 -467.57,-68.08 -717.98,-212.5zm189.93 -537.54c-216.12,-374.33 -245.59,-793.13 -246.11,-988.73 141.49,82.03 407.93,259.72 617.33,534.09 -3.28,43.6 -5,88.07 -5,133.05 0,389.32 129.77,731.42 237.14,947.71 -181.82,-123.05 -432.93,-331.07 -603.37,-626.12zm801.57 689.37c-99.79,-173.03 -291.26,-563.39 -291.26,-1010.96 0,-447.41 191.47,-837.93 291.26,-1010.97 99.78,173.04 291.26,563.56 291.26,1010.97 0,447.57 -191.48,837.93 -291.26,1010.96zm435.34 -1010.96c0,-44.98 -1.72,-89.45 -5,-133.05 209.57,-274.54 476.01,-452.23 617.33,-534.09 -0.17,195.09 -29.47,613.37 -246.11,988.73 -169.93,294.19 -421.21,502.38 -603.03,625.6 107.2,-216.29 236.8,-558.22 236.8,-947.19zm556.15 859.13c-250.41,144.42 -523.06,195.78 -717.98,212.5 195.27,-130.81 466.19,-354.34 652.83,-677.83 11.72,-20.34 22.92,-40.67 33.61,-61.18 261.27,-99.44 517.03,-117.71 658.35,-119.09 -91.34,155.11 -299.71,456.71 -626.81,645.6z"/>
   <path class="fil24" d="M1802.88 1380.3c-117.36,0 -212.84,95.31 -212.84,212.67 0,117.19 95.48,212.67 212.84,212.67 117.19,0 212.67,-95.48 212.67,-212.67 0,-117.36 -95.48,-212.67 -212.67,-212.67zm0 281.09c-37.92,0 -68.59,-30.68 -68.59,-68.42 0,-37.75 30.68,-68.59 68.59,-68.59 37.75,0 68.42,30.85 68.42,68.59 0,37.74 -30.68,68.42 -68.42,68.42z"/>
   <path class="fil25" d="M2970.68 1380.3c-117.19,0 -212.67,95.31 -212.67,212.67 0,117.19 95.48,212.67 212.67,212.67 117.36,0 212.84,-95.48 212.84,-212.67 0,-117.36 -95.48,-212.67 -212.84,-212.67zm0 281.09c-37.75,0 -68.42,-30.68 -68.42,-68.42 0,-37.75 30.68,-68.59 68.42,-68.59 37.92,0 68.59,30.85 68.59,68.59 0,37.74 -30.68,68.42 -68.59,68.42z"/>
   <path class="fil26" d="M2386.78 760.21c-117.19,0 -212.67,95.48 -212.67,212.67 0,117.36 95.48,212.67 212.67,212.67 117.19,0 212.67,-95.31 212.67,-212.67 0,-117.19 -95.48,-212.67 -212.67,-212.67zm0 281.26c-37.75,0 -68.42,-30.85 -68.42,-68.59 0,-37.75 30.68,-68.42 68.42,-68.42 37.74,0 68.42,30.68 68.42,68.42 0,37.74 -30.68,68.59 -68.42,68.59z"/>
   <path class="fil27" d="M2458.99 3067.54c-37.57,-13.1 -78.76,6.72 -92.03,44.29 -8.79,25.16 -14.65,39.3 -14.65,39.3 -15.68,36.71 1.38,78.93 38.09,94.62 9.13,3.97 18.79,5.86 28.09,5.86 28.09,0 54.81,-16.54 66.35,-43.95 0.86,-1.72 7.93,-18.44 18.27,-48.25 13.27,-37.57 -6.55,-78.59 -44.12,-91.86z"/>
   <path class="fil28" d="M2599.8 2522.24c-1.38,-39.64 -34.64,-71 -74.45,-69.62 -39.81,1.2 -71,34.47 -69.8,74.28 3.97,123.23 -6.89,249.73 -32.23,376.22 -7.76,39.12 17.4,77.04 56.53,84.97 4.83,0.86 9.48,1.38 14.3,1.38 33.61,0 63.59,-23.78 70.49,-57.91 27.57,-137.36 39.47,-275.06 35.16,-409.32z"/>
  </g>
 </g>
</svg>
