<?xml version="1.0" encoding="UTF-8"?>
<!DOCTYPE svg PUBLIC "-//W3C//DTD SVG 1.1//EN" "http://www.w3.org/Graphics/SVG/1.1/DTD/svg11.dtd">
<!-- Creator: CorelDRAW 2019 (64-Bit) -->
<svg xmlns="http://www.w3.org/2000/svg" xml:space="preserve" width="5in" height="4.95562in" version="1.1" style="shape-rendering:geometricPrecision; text-rendering:geometricPrecision; image-rendering:optimizeQuality; fill-rule:evenodd; clip-rule:evenodd"
viewBox="0 0 5813.42 5761.82"
 xmlns:xlink="http://www.w3.org/1999/xlink">
 <defs>
  <style type="text/css">
   <![CDATA[
    .str0 {stroke:black;stroke-width:3.49;stroke-miterlimit:2.61313}
    .fil0 {fill:none}
    .fil25 {fill:#990000}
    .fil1 {fill:#FCB57A}
    .fil2 {fill:#FCB87F}
    .fil3 {fill:#FCBC86}
    .fil4 {fill:#FCBF8D}
    .fil5 {fill:#FDC393}
    .fil6 {fill:#FDC699}
    .fil7 {fill:#FDCA9F}
    .fil8 {fill:#FDCDA6}
    .fil9 {fill:#FDD1AD}
    .fil10 {fill:#FDD4B2}
    .fil11 {fill:#FDD8B9}
    .fil12 {fill:#FEDBBF}
    .fil13 {fill:#FEDFC6}
    .fil14 {fill:#FEE2CB}
    .fil15 {fill:#FEE6D2}
    .fil16 {fill:#FEEAD8}
    .fil17 {fill:#FEEDDF}
    .fil18 {fill:#FEF0E4}
    .fil19 {fill:#FFF4EB}
    .fil20 {fill:#FFF8F2}
    .fil21 {fill:#FFFBF8}
    .fil22 {fill:white}
    .fil23 {fill:url(#id2)}
    .fil26 {fill:url(#id3)}
    .fil24 {fill:url(#id4)}
   ]]>
  </style>
      <clipPath id="id0">
       <path d="M-0 0l5813.42 0 0 5761.82 -5813.42 0 0 -5761.82z"/>
      </clipPath>
      <clipPath id="id1">
       <path d="M-0 0l5813.42 0 0 5761.82 -5813.42 0 0 -5761.82z"/>
      </clipPath>
  <linearGradient id="id2" gradientUnits="userSpaceOnUse" x1="894.43" y1="2699.36" x2="4605.01" y2="2699.36">
   <stop offset="0" style="stop-opacity:1; stop-color:#990000"/>
   <stop offset="0.490196" style="stop-opacity:1; stop-color:#CC401D"/>
   <stop offset="1" style="stop-opacity:1; stop-color:#FF803B"/>
  </linearGradient>
  <linearGradient id="id3" gradientUnits="userSpaceOnUse" xlink:href="#id2" x1="3171.84" y1="2285.72" x2="3572.93" y2="2285.72">
  </linearGradient>
  <linearGradient id="id4" gradientUnits="userSpaceOnUse" x1="1596.43" y1="3275.91" x2="3903" y2="3275.91">
   <stop offset="0" style="stop-opacity:1; stop-color:#990000"/>
   <stop offset="1" style="stop-opacity:1; stop-color:#FF803B"/>
  </linearGradient>
 </defs>
 <g id="Layer_x0020_1">
  <metadata id="CorelCorpID_0Corel-Layer"/>
  <g id="_2491676406336">
   <g id="_1944939703392">
    <g>
     <g>
     </g>
     <g style="clip-path:url(#id0)">
     </g>
     <polygon class="fil0" points="-0,0 5813.42,0 5813.42,5761.82 -0,5761.82 "/>
     <g style="clip-path:url(#id1)">
      <path id="1" class="fil0 str0" d="M-0 0l5813.42 5761.82m0 -5761.82l-5813.42 5761.82"/>
     </g>
    </g>
    <ellipse class="fil1" transform="matrix(0.63368 -0.63754 -0.683328 -0.671153 2764.91 2687.27)" rx="2836.22" ry="2600.93"/>
    <g>
     <path class="fil2" d="M4413.65 4288.73c967.05,-967.93 990.2,-2500.58 51.77,-3423.28 -938.6,-922.7 -2483.26,-885.95 -3450.31,81.98 -967.23,967.93 -990.37,2500.58 -51.77,3423.1 938.42,922.7 2483.26,885.95 3450.31,-81.81z"/>
     <path class="fil3" d="M4285.19 4144.37c941.6,-937.19 978.89,-2411.17 83.4,-3292.52 -895.49,-881.17 -2384.67,-835.94 -3326.27,101.25 -941.43,937.18 -978.71,2411.35 -83.22,3292.52 895.49,881.35 2384.67,835.94 3326.1,-101.25z"/>
     <path class="fil4" d="M4156.73 4000.18c915.98,-906.45 967.58,-2322.12 115.03,-3161.95 -852.37,-839.83 -2286.07,-785.76 -3202.06,120.68 -915.98,906.45 -967.4,2321.94 -115.03,3161.95 852.55,839.83 2286.08,785.76 3202.06,-120.68z"/>
     <path class="fil5" d="M4028.28 3856c890.54,-875.7 956.09,-2232.89 146.65,-3031.37 -809.26,-798.48 -2187.3,-735.75 -3077.84,139.94 -890.36,875.69 -956.09,2232.88 -146.65,3031.37 809.43,798.31 2187.3,735.76 3077.84,-139.94z"/>
     <path class="fil6" d="M3899.82 3711.82c864.92,-845.13 944.79,-2143.66 178.46,-2900.79 -766.5,-756.96 -2088.88,-685.75 -2953.8,159.2 -864.92,844.95 -944.79,2143.66 -178.46,2900.79 766.5,756.96 2088.88,685.75 2953.8,-159.2z"/>
     <path class="fil7" d="M3771.36 3567.46c839.3,-814.21 933.48,-2054.43 210.09,-2770.04 -723.39,-715.61 -1990.28,-635.57 -2829.58,178.64 -839.48,814.2 -933.48,2054.42 -210.09,2770.04 723.39,715.61 1990.11,635.57 2829.58,-178.64z"/>
     <path class="fil8" d="M3642.91 3423.28c813.85,-783.47 921.99,-1965.2 241.71,-2639.46 -680.27,-674.27 -1891.51,-585.56 -2705.36,197.9 -813.86,783.46 -922.17,1965.19 -241.9,2639.46 680.45,674.27 1891.69,585.57 2705.55,-197.89z"/>
     <path class="fil9" d="M3514.45 3279.09c788.23,-752.72 910.68,-1875.97 273.35,-2508.88 -637.33,-632.74 -1792.92,-535.56 -2581.15,217.16 -788.41,752.89 -910.86,1876.14 -273.52,2508.88 637.34,632.74 1792.92,535.56 2581.33,-217.16z"/>
     <path class="fil10" d="M3385.82 3134.91c762.79,-722.15 899.37,-1786.91 305.15,-2378.3 -594.22,-591.4 -1694.32,-485.56 -2456.93,236.59 -762.79,721.97 -899.37,1786.73 -305.15,2378.13 594.22,591.4 1694.32,485.56 2456.93,-236.42z"/>
     <path class="fil11" d="M3257.36 2990.55c737.34,-691.23 888.07,-1697.51 336.78,-2247.56 -551.11,-549.87 -1595.55,-435.37 -2332.9,255.85 -737.16,691.23 -887.89,1697.51 -336.78,2247.55 551.29,550.05 1595.72,435.55 2332.89,-255.85z"/>
     <path class="fil12" d="M3128.9 2846.37c711.73,-660.49 876.76,-1608.28 368.58,-2116.98 -508.17,-508.53 -1497.13,-385.37 -2208.85,275.11 -711.55,660.66 -876.58,1608.45 -368.41,2116.98 508.18,508.7 1497.13,385.54 2208.68,-275.11z"/>
     <path class="fil13" d="M3000.45 2702.18c686.1,-629.91 865.27,-1519.22 400.21,-1986.4 -465.23,-467.18 -1398.54,-335.37 -2084.64,294.55 -686.11,629.74 -865.28,1519.04 -400.22,1986.22 465.24,467.18 1398.54,335.37 2084.64,-294.37z"/>
     <path class="fil14" d="M2871.99 2558c660.66,-599.17 853.96,-1429.99 431.84,-1855.82 -422.12,-425.66 -1299.76,-285.19 -1960.42,313.81 -660.66,599.17 -853.96,1429.99 -431.84,1855.64 422.12,425.84 1299.76,285.37 1960.42,-313.63z"/>
     <path class="fil15" d="M2743.53 2413.65c635.04,-568.25 842.66,-1340.58 463.47,-1725.07 -379.01,-384.31 -1201.17,-235.18 -1836.21,333.25 -635.04,568.25 -842.66,1340.58 -463.47,1725.07 379.01,384.31 1201.17,235.18 1836.21,-333.24z"/>
     <path class="fil16" d="M2615.08 2269.46c609.59,-537.5 831.17,-1251.52 495.1,-1594.49 -335.9,-342.96 -1102.57,-185.17 -1711.99,352.5 -609.59,537.68 -831.35,1251.53 -495.28,1594.49 336.08,342.96 1102.57,185.17 1712.17,-352.51z"/>
     <path class="fil17" d="M2486.62 2125.28c583.97,-506.93 819.86,-1162.3 526.9,-1463.91 -293.13,-301.44 -1003.98,-134.99 -1587.95,371.77 -583.97,506.93 -819.86,1162.3 -526.9,1463.91 292.96,301.44 1003.98,135.17 1587.95,-371.77z"/>
     <path class="fil18" d="M2358.16 1981.09c558.35,-476.19 808.56,-1073.07 558.53,-1333.33 -250.02,-260.1 -905.38,-84.99 -1463.91,391.2 -558.35,476.02 -808.38,1072.89 -558.53,1333.16 250.02,260.1 905.38,84.99 1463.91,-391.02z"/>
     <path class="fil19" d="M2229.71 1836.73c532.91,-445.27 797.07,-983.65 590.16,-1202.58 -206.91,-218.74 -806.79,-34.99 -1339.7,410.46 -532.91,445.45 -797.07,983.83 -590.16,1202.58 206.91,218.74 806.79,34.99 1339.7,-410.46z"/>
     <path class="fil20" d="M2101.25 1692.55c507.29,-414.7 785.76,-894.6 621.79,-1072 -163.8,-177.22 -708.02,15.2 -1215.48,429.72 -507.29,414.7 -785.76,894.6 -621.79,1072 163.8,177.4 708.02,-15.02 1215.48,-429.72z"/>
     <path class="fil21" d="M1972.62 1548.37c481.85,-383.96 774.45,-805.37 653.59,-941.25 -120.86,-136.05 -609.42,65.02 -1091.26,448.98 -481.85,383.96 -774.45,805.37 -653.59,941.25 120.86,135.88 609.42,-65.02 1091.27,-448.98z"/>
    </g>
    <ellipse class="fil22" transform="matrix(0.711858 -0.551005 -0.568294 -0.690203 1703.27 1232.94)" rx="1160.85" ry="248.1"/>
   </g>
   <g id="_2491676407072">
    <path class="fil23" d="M2749.72 844.07c-1023.06,0 -1855.29,832.23 -1855.29,1855.29 0,1023.06 832.23,1855.29 1855.29,1855.29 1023.06,0 1855.29,-832.23 1855.29,-1855.29 0,-1023.06 -832.23,-1855.29 -1855.29,-1855.29zm0 3510.03c-454.46,0 -866.68,-184.29 -1166.18,-481.85 -119.45,-118.91 -220.87,-255.85 -300.03,-406.4 -120.33,-229.35 -188.53,-490.15 -188.53,-766.5 0,-912.45 742.3,-1654.74 1654.74,-1654.74 432.72,0 827.29,167.15 1122.37,440.14 153.02,141.35 279.35,311.33 370.53,501.28 103.72,216.1 161.85,457.99 161.85,713.32 0,912.45 -742.29,1654.74 -1654.74,1654.74z"/>
    <path class="fil24" d="M3903 2699.36l-200.55 0c0,526.55 -427.42,952.74 -952.74,952.74 -525.31,0 -952.73,-426.19 -952.73,-952.74l-200.55 0c0,639.28 517.36,1153.28 1153.28,1153.28 635.92,0 1153.29,-514 1153.29,-1153.28z"/>
    <circle class="fil25" cx="2131.29" cy="2285.72" r="200.55"/>
    <circle class="fil26" cx="3372.39" cy="2285.72" r="200.55"/>
   </g>
  </g>
 </g>
</svg>
