<?xml version="1.0" encoding="UTF-8"?>
<!DOCTYPE svg PUBLIC "-//W3C//DTD SVG 1.1//EN" "http://www.w3.org/Graphics/SVG/1.1/DTD/svg11.dtd">
<!-- Creator: CorelDRAW 2019 (64-Bit) -->
<svg xmlns="http://www.w3.org/2000/svg" xml:space="preserve" width="5in" height="4.95562in" version="1.1" style="shape-rendering:geometricPrecision; text-rendering:geometricPrecision; image-rendering:optimizeQuality; fill-rule:evenodd; clip-rule:evenodd"
viewBox="0 0 5813.42 5761.82"
 xmlns:xlink="http://www.w3.org/1999/xlink">
 <defs>
  <style type="text/css">
   <![CDATA[
    .str0 {stroke:black;stroke-width:3.49;stroke-miterlimit:2.61313}
    .fil0 {fill:none}
    .fil1 {fill:#FCB57A}
    .fil2 {fill:#FCB87F}
    .fil3 {fill:#FCBC86}
    .fil4 {fill:#FCBF8D}
    .fil5 {fill:#FDC393}
    .fil6 {fill:#FDC699}
    .fil7 {fill:#FDCA9F}
    .fil8 {fill:#FDCDA6}
    .fil9 {fill:#FDD1AD}
    .fil10 {fill:#FDD4B2}
    .fil11 {fill:#FDD8B9}
    .fil12 {fill:#FEDBBF}
    .fil13 {fill:#FEDFC6}
    .fil14 {fill:#FEE2CB}
    .fil15 {fill:#FEE6D2}
    .fil16 {fill:#FEEAD8}
    .fil17 {fill:#FEEDDF}
    .fil18 {fill:#FEF0E4}
    .fil19 {fill:#FFF4EB}
    .fil20 {fill:#FFF8F2}
    .fil21 {fill:#FFFBF8}
    .fil22 {fill:white}
    .fil23 {fill:url(#id2)}
   ]]>
  </style>
      <clipPath id="id0">
       <path d="M-0 0l5813.42 0 0 5761.82 -5813.42 0 0 -5761.82z"/>
      </clipPath>
      <clipPath id="id1">
       <path d="M-0 0l5813.42 0 0 5761.82 -5813.42 0 0 -5761.82z"/>
      </clipPath>
  <linearGradient id="id2" gradientUnits="userSpaceOnUse" x1="1115.33" y1="2617.9" x2="4313.35" y2="2617.9">
   <stop offset="0" style="stop-opacity:1; stop-color:#990000"/>
   <stop offset="0.270588" style="stop-opacity:1; stop-color:#990000"/>
   <stop offset="0.478431" style="stop-opacity:1; stop-color:white"/>
   <stop offset="0.490196" style="stop-opacity:1; stop-color:#CC401D"/>
   <stop offset="0.690196" style="stop-opacity:1; stop-color:#FF803B"/>
   <stop offset="1" style="stop-opacity:1; stop-color:#FF803B"/>
  </linearGradient>
 </defs>
 <g id="Layer_x0020_1">
  <metadata id="CorelCorpID_0Corel-Layer"/>
  <g id="_2491767792800">
   <g id="_1910318615792">
    <g>
     <g>
     </g>
     <g style="clip-path:url(#id0)">
     </g>
     <polygon class="fil0" points="-0,0 5813.42,0 5813.42,5761.82 -0,5761.82 "/>
     <g style="clip-path:url(#id1)">
      <path id="1" class="fil0 str0" d="M-0 0l5813.42 5761.82m0 -5761.82l-5813.42 5761.82"/>
     </g>
    </g>
    <ellipse class="fil1" transform="matrix(0.63368 -0.63754 -0.683328 -0.671154 2764.91 2687.27)" rx="2836.22" ry="2600.93"/>
    <g>
     <path class="fil2" d="M4413.65 4288.73c967.05,-967.93 990.2,-2500.58 51.77,-3423.28 -938.6,-922.7 -2483.26,-885.95 -3450.31,81.98 -967.23,967.93 -990.37,2500.58 -51.77,3423.1 938.42,922.7 2483.26,885.95 3450.31,-81.81z"/>
     <path class="fil3" d="M4285.19 4144.37c941.6,-937.19 978.89,-2411.17 83.4,-3292.52 -895.49,-881.17 -2384.67,-835.94 -3326.27,101.25 -941.43,937.19 -978.71,2411.35 -83.22,3292.52 895.49,881.35 2384.67,835.94 3326.1,-101.25z"/>
     <path class="fil4" d="M4156.73 4000.18c915.98,-906.45 967.58,-2322.12 115.03,-3161.95 -852.37,-839.83 -2286.07,-785.76 -3202.06,120.68 -915.98,906.45 -967.4,2321.94 -115.03,3161.95 852.55,839.83 2286.08,785.76 3202.06,-120.68z"/>
     <path class="fil5" d="M4028.28 3856c890.54,-875.7 956.09,-2232.89 146.65,-3031.37 -809.26,-798.48 -2187.3,-735.75 -3077.84,139.94 -890.36,875.69 -956.09,2232.88 -146.65,3031.37 809.43,798.31 2187.3,735.76 3077.84,-139.94z"/>
     <path class="fil6" d="M3899.82 3711.82c864.92,-845.13 944.79,-2143.66 178.46,-2900.79 -766.5,-756.96 -2088.88,-685.75 -2953.8,159.2 -864.92,844.95 -944.79,2143.66 -178.46,2900.79 766.5,756.96 2088.88,685.75 2953.8,-159.2z"/>
     <path class="fil7" d="M3771.36 3567.46c839.3,-814.21 933.48,-2054.43 210.09,-2770.04 -723.39,-715.61 -1990.28,-635.57 -2829.58,178.64 -839.48,814.2 -933.48,2054.42 -210.09,2770.04 723.39,715.61 1990.11,635.57 2829.58,-178.64z"/>
     <path class="fil8" d="M3642.91 3423.28c813.85,-783.47 921.99,-1965.2 241.71,-2639.46 -680.27,-674.27 -1891.51,-585.57 -2705.36,197.9 -813.86,783.46 -922.17,1965.19 -241.9,2639.46 680.45,674.27 1891.69,585.57 2705.55,-197.89z"/>
     <path class="fil9" d="M3514.45 3279.09c788.23,-752.72 910.68,-1875.97 273.35,-2508.88 -637.33,-632.74 -1792.92,-535.56 -2581.15,217.16 -788.41,752.89 -910.86,1876.14 -273.52,2508.88 637.34,632.74 1792.92,535.56 2581.33,-217.16z"/>
     <path class="fil10" d="M3385.82 3134.91c762.79,-722.15 899.37,-1786.91 305.15,-2378.3 -594.22,-591.4 -1694.32,-485.56 -2456.93,236.59 -762.79,721.97 -899.37,1786.73 -305.15,2378.13 594.22,591.4 1694.32,485.56 2456.93,-236.42z"/>
     <path class="fil11" d="M3257.36 2990.55c737.35,-691.23 888.07,-1697.51 336.78,-2247.56 -551.11,-549.87 -1595.55,-435.37 -2332.9,255.85 -737.16,691.23 -887.89,1697.51 -336.78,2247.55 551.29,550.05 1595.72,435.55 2332.89,-255.85z"/>
     <path class="fil12" d="M3128.9 2846.37c711.73,-660.49 876.76,-1608.28 368.58,-2116.98 -508.17,-508.53 -1497.13,-385.37 -2208.85,275.11 -711.55,660.66 -876.58,1608.45 -368.41,2116.98 508.18,508.7 1497.13,385.54 2208.68,-275.11z"/>
     <path class="fil13" d="M3000.45 2702.18c686.1,-629.91 865.27,-1519.22 400.21,-1986.4 -465.23,-467.18 -1398.54,-335.37 -2084.64,294.55 -686.11,629.74 -865.28,1519.04 -400.22,1986.22 465.24,467.18 1398.54,335.37 2084.64,-294.37z"/>
     <path class="fil14" d="M2871.99 2558c660.66,-599.17 853.96,-1429.99 431.84,-1855.82 -422.12,-425.66 -1299.76,-285.19 -1960.42,313.81 -660.66,599.17 -853.96,1429.99 -431.84,1855.64 422.12,425.84 1299.76,285.37 1960.42,-313.63z"/>
     <path class="fil15" d="M2743.53 2413.65c635.04,-568.25 842.66,-1340.58 463.47,-1725.07 -379.01,-384.31 -1201.17,-235.18 -1836.21,333.25 -635.04,568.25 -842.66,1340.58 -463.47,1725.07 379.01,384.31 1201.17,235.18 1836.21,-333.24z"/>
     <path class="fil16" d="M2615.08 2269.46c609.59,-537.5 831.17,-1251.52 495.1,-1594.49 -335.9,-342.96 -1102.57,-185.17 -1711.99,352.5 -609.59,537.68 -831.35,1251.53 -495.28,1594.49 336.08,342.96 1102.57,185.17 1712.17,-352.51z"/>
     <path class="fil17" d="M2486.62 2125.28c583.97,-506.93 819.86,-1162.3 526.9,-1463.91 -293.13,-301.44 -1003.98,-134.99 -1587.95,371.77 -583.97,506.93 -819.86,1162.3 -526.9,1463.91 292.96,301.44 1003.98,135.17 1587.95,-371.77z"/>
     <path class="fil18" d="M2358.16 1981.09c558.35,-476.19 808.56,-1073.07 558.53,-1333.33 -250.02,-260.1 -905.38,-84.99 -1463.91,391.2 -558.36,476.02 -808.38,1072.89 -558.53,1333.16 250.02,260.1 905.38,84.99 1463.91,-391.02z"/>
     <path class="fil19" d="M2229.71 1836.73c532.91,-445.27 797.07,-983.66 590.16,-1202.58 -206.91,-218.74 -806.79,-34.99 -1339.7,410.46 -532.91,445.45 -797.07,983.83 -590.16,1202.58 206.91,218.74 806.79,34.99 1339.7,-410.46z"/>
     <path class="fil20" d="M2101.25 1692.55c507.29,-414.7 785.76,-894.6 621.79,-1072 -163.8,-177.22 -708.02,15.2 -1215.48,429.72 -507.29,414.7 -785.76,894.6 -621.79,1072 163.8,177.4 708.02,-15.02 1215.48,-429.72z"/>
     <path class="fil21" d="M1972.62 1548.37c481.85,-383.96 774.45,-805.37 653.59,-941.25 -120.86,-136.05 -609.42,65.02 -1091.26,448.98 -481.85,383.96 -774.45,805.37 -653.59,941.25 120.86,135.88 609.42,-65.02 1091.27,-448.98z"/>
    </g>
    <ellipse class="fil22" transform="matrix(0.711858 -0.551005 -0.568294 -0.690203 1703.27 1232.94)" rx="1160.85" ry="248.1"/>
   </g>
   <path class="fil23" d="M4327.78 3659.52c33.22,-106.02 -25.8,-219.1 -131.81,-252.5 -473.54,-148.77 -674.8,-996.91 -721.8,-1309.66 -7.07,-44.35 -29.86,-87.28 -29.86,-87.28 -86.93,-165.56 -416.11,-242.78 -453.22,-247.2 -66.62,-7.95 -75.09,-58.84 -77.74,-76.16 116.26,-80.93 194.71,-276.17 194.71,-452.51 0,-260.27 -27.56,-471.42 -382.36,-471.42 -4.77,0 -22.97,0 -27.74,0 -354.62,0 -382.19,211.15 -382.19,471.42 0,176.34 78.45,371.59 194.72,452.51 -2.83,17.32 -13.78,69.09 -77.74,76.16 -39.93,4.42 -417.88,93.65 -468.59,286.24 0,0 -6.18,27.57 -10.07,48.95 -0.53,2.82 -39.58,293.84 -156.73,609.77 -100.01,269.46 -279,609.59 -564.54,699.18 -106.02,33.4 -165.03,146.48 -131.64,252.5 26.68,85.34 104.96,140.12 189.77,141 -169.8,97.54 -194.54,233.77 -194.54,304.27 0,28.1 14.49,119.09 80.75,203.2 59.37,75.45 177.93,165.38 404.81,165.38 34.1,0 69.97,-1.94 107.08,-6.01 150.9,-16.25 303.03,-40.64 450.22,-64.14 53.36,-8.66 106.72,-17.14 160.08,-25.27 71.21,-10.95 199.49,-18.2 381.48,-21.56l62.19 0c181.82,3.36 310.28,10.6 381.31,21.56 53.54,8.13 106.9,16.61 160.26,25.27 147.19,23.5 299.32,47.89 450.22,64.14 36.93,3.89 72.97,6.01 107.08,6.01 226.87,0 345.44,-89.93 404.81,-165.38 66.26,-84.11 80.75,-175.1 80.75,-203.2 0,-70.5 -24.92,-206.73 -194.54,-304.27 0.88,0 1.77,0 2.65,0 85.7,0 165.21,-54.95 192.25,-141zm-2353.04 -25.45c-102.13,31.8 -125.46,35.16 -212.92,47.53 -28.45,4.06 -63.43,9.01 -109.73,16.08 -45.23,4.77 -86.93,11.31 -125.1,19.08 262.57,-145.07 474.43,-421.77 631.33,-825.51 8.83,78.63 14.31,165.21 14.31,260.62 0,310.81 -157.61,469.66 -197.9,482.2zm1796.98 63.61c-46.29,-7.07 -81.28,-12.55 -109.73,-16.08 -275.29,-33.92 -410.81,-218.92 -410.81,-529.73 0,-99.48 6.01,-189.42 15.37,-270.87 157.96,410.82 372.12,691.58 638.22,837.36 -40.47,-8.48 -84.64,-15.55 -133.05,-20.67z"/>
  </g>
 </g>
</svg>
